<svg xmlns="http://www.w3.org/2000/svg" viewBox="0 0 760 214" width="760" height="214" role="img" aria-label="Lista de 7 ventas con índices positivos de 0 a 6 arriba y negativos de -7 a -1 abajo; el slice ventas[2:5] resaltado contiene 0, 520 y 610.">
<title>Lista de 7 ventas con índices positivos de 0 a 6 arriba y negativos de -7 a -1 abajo; el slice ventas[2:5] resaltado contiene 0, 520 y 610.</title>
<style>
  text { font-family: Archivo, 'Helvetica Neue', Arial, sans-serif; font-size: 14px; fill: #1b2430; }
  .m { font-family: 'JetBrains Mono', Menlo, Consolas, monospace; font-size: 13px; }
  .s { font-size: 12px; fill: #465264; }
  .t { font-size: 16px; font-weight: 700; }
  .b { font-weight: 700; }
  .mu { fill: #6b7380; }
  .w { fill: #fff; }
  .ln { stroke: #465264; stroke-width: 1.6; fill: none; }
  .ln-s { stroke: #c5ced6; stroke-width: 1.2; fill: none; }
</style>
<defs><marker id="p" viewBox="0 0 10 10" refX="9" refY="5" markerWidth="7" markerHeight="7" orient="auto-start-reverse"><path d="M0,0 L10,5 L0,10 z" fill="#465264"/></marker><marker id="pb" viewBox="0 0 10 10" refX="9" refY="5" markerWidth="7" markerHeight="7" orient="auto-start-reverse"><path d="M0,0 L10,5 L0,10 z" fill="#0a70a8"/></marker><marker id="pg" viewBox="0 0 10 10" refX="9" refY="5" markerWidth="7" markerHeight="7" orient="auto-start-reverse"><path d="M0,0 L10,5 L0,10 z" fill="#2e7d4f"/></marker></defs>
<rect x="252" y="44" width="264" height="92" rx="6" fill="#fbf1b8" stroke="none" stroke-width="1.5"/>
<rect x="90" y="60" width="76" height="52" rx="4" fill="#fff" stroke="#1d4f66" stroke-width="2"/>
<text x="128.0" y="92" text-anchor="middle" class="m b">340</text>
<text x="128.0" y="36" text-anchor="middle" class="m b" style="fill:#1d4f66">0</text>
<text x="128.0" y="134" text-anchor="middle" class="m" style="fill:#b8402f">-7</text>
<rect x="174" y="60" width="76" height="52" rx="4" fill="#fff" stroke="#1d4f66" stroke-width="2"/>
<text x="212.0" y="92" text-anchor="middle" class="m b">410</text>
<text x="212.0" y="36" text-anchor="middle" class="m b" style="fill:#1d4f66">1</text>
<text x="212.0" y="134" text-anchor="middle" class="m" style="fill:#b8402f">-6</text>
<rect x="258" y="60" width="76" height="52" rx="4" fill="#fff" stroke="#b07600" stroke-width="2"/>
<text x="296.0" y="92" text-anchor="middle" class="m b">0</text>
<text x="296.0" y="36" text-anchor="middle" class="m b" style="fill:#1d4f66">2</text>
<text x="296.0" y="134" text-anchor="middle" class="m" style="fill:#b8402f">-5</text>
<rect x="342" y="60" width="76" height="52" rx="4" fill="#fff" stroke="#b07600" stroke-width="2"/>
<text x="380.0" y="92" text-anchor="middle" class="m b">520</text>
<text x="380.0" y="36" text-anchor="middle" class="m b" style="fill:#1d4f66">3</text>
<text x="380.0" y="134" text-anchor="middle" class="m" style="fill:#b8402f">-4</text>
<rect x="426" y="60" width="76" height="52" rx="4" fill="#fff" stroke="#b07600" stroke-width="2"/>
<text x="464.0" y="92" text-anchor="middle" class="m b">610</text>
<text x="464.0" y="36" text-anchor="middle" class="m b" style="fill:#1d4f66">4</text>
<text x="464.0" y="134" text-anchor="middle" class="m" style="fill:#b8402f">-3</text>
<rect x="510" y="60" width="76" height="52" rx="4" fill="#fff" stroke="#1d4f66" stroke-width="2"/>
<text x="548.0" y="92" text-anchor="middle" class="m b">890</text>
<text x="548.0" y="36" text-anchor="middle" class="m b" style="fill:#1d4f66">5</text>
<text x="548.0" y="134" text-anchor="middle" class="m" style="fill:#b8402f">-2</text>
<rect x="594" y="60" width="76" height="52" rx="4" fill="#fff" stroke="#1d4f66" stroke-width="2"/>
<text x="632.0" y="92" text-anchor="middle" class="m b">450</text>
<text x="632.0" y="36" text-anchor="middle" class="m b" style="fill:#1d4f66">6</text>
<text x="632.0" y="134" text-anchor="middle" class="m" style="fill:#b8402f">-1</text>
<text x="40" y="36" text-anchor="start" class="s">índice</text>
<text x="24" y="134" text-anchor="start" class="s">negativo</text>
<text x="380.0" y="172" text-anchor="middle" class="m b">ventas[2:5] → [0, 520, 610]  (incluye 2, excluye 5)</text>
<text x="380" y="200" text-anchor="middle" class="m s">ventas[0] = 340     ventas[-1] = 450     ventas[-2:] = [890, 450]</text>
</svg>
